<svg width="30" height="29" viewBox="0 0 30 29" fill="none" xmlns="http://www.w3.org/2000/svg">
<mask id="mask0_20_241" style="mask-type:luminance" maskUnits="userSpaceOnUse" x="0" y="0" width="30" height="29">
<path d="M30 0H0V28.6866H30V0Z" fill="white"/>
</mask>
<g mask="url(#mask0_20_241)">
<path d="M30 14.3433C30 6.4218 23.2842 0 15 0C6.71581 0 0 6.4218 0 14.3433C0 21.0697 4.8432 26.7141 11.3766 28.2643V18.7266H8.28363V14.3433H11.3766V12.4546C11.3766 7.57267 13.6872 5.30989 18.6996 5.30989C19.65 5.30989 21.2898 5.48832 21.9606 5.66618V9.6393C21.6066 9.60368 20.9916 9.58593 20.2278 9.58593C17.7684 9.58593 16.818 10.4769 16.818 12.7931V14.3433H21.7176L20.8758 18.7266H16.818V28.5816C24.2454 27.7239 30 21.6767 30 14.3433Z" fill="black"/>
<path d="M20.8752 18.7268L21.717 14.3435H16.8174V12.7933C16.8174 10.4771 17.7678 9.5861 20.2272 9.5861C20.991 9.5861 21.606 9.60385 21.96 9.63947V5.66635C21.2892 5.48792 19.6494 5.31006 18.699 5.31006C13.6866 5.31006 11.376 7.57283 11.376 12.4548V14.3435H8.28301V18.7268H11.376V28.2645C12.5364 28.5399 13.7502 28.6868 14.9994 28.6868C15.6144 28.6868 16.221 28.6506 16.8168 28.5818V18.7268H20.8752Z" fill="white"/>
</g>
</svg>
