<svg width="57" height="64" viewBox="0 0 57 64" fill="none" xmlns="http://www.w3.org/2000/svg">
<g clip-path="url(#clip0_26_174)">
<path d="M28.2595 64C27.4015 64 26.6007 63.7668 25.8571 63.3586L18.2498 58.7517C17.1059 58.1102 17.6778 57.877 18.021 57.7603C19.5654 57.2355 19.8514 57.1189 21.4529 56.1859C21.6245 56.0692 21.8533 56.1275 22.0248 56.2442L27.859 59.8014C28.0879 59.918 28.3738 59.918 28.5454 59.8014L51.3674 46.3307C51.5962 46.214 51.7106 45.9808 51.7106 45.6892V18.806C51.7106 18.5145 51.5962 18.2812 51.3674 18.1646L28.5454 4.75223C28.3167 4.63561 28.0306 4.63561 27.859 4.75223L5.0371 18.1646C4.80832 18.2812 4.69392 18.5728 4.69392 18.806V45.6892C4.69392 45.9224 4.80832 46.214 5.0371 46.3307L11.2717 50.0045C14.6464 51.7539 16.7626 49.7129 16.7626 47.6719V21.1386C16.7626 20.7888 17.0487 20.4389 17.449 20.4389H20.3662C20.7093 20.4389 21.0525 20.7305 21.0525 21.1386V47.6719C21.0525 52.2788 18.593 54.9613 14.3031 54.9613C12.9876 54.9613 11.9581 54.9613 9.04093 53.5034L3.03518 50.0045C1.54804 49.1297 0.632874 47.4969 0.632874 45.7475V18.8644C0.632874 17.115 1.54804 15.4822 3.03518 14.6074L25.8571 1.13672C27.2871 0.320313 29.2318 0.320313 30.6618 1.13672L53.4837 14.6074C54.9709 15.4822 55.886 17.115 55.886 18.8644V45.7475C55.886 47.4969 54.9709 49.1297 53.4837 50.0045L30.6618 63.4752C29.9754 63.7668 29.1174 64 28.2595 64Z" fill="#5FA04E"/>
<path d="M35.352 45.5143C25.3424 45.5143 23.2833 40.8491 23.2833 36.8837C23.2833 36.5339 23.5692 36.184 23.9696 36.184H26.9439C27.2871 36.184 27.5731 36.4172 27.5731 36.7671C28.0306 39.8577 29.3462 41.374 35.4092 41.374C40.2138 41.374 42.2729 40.266 42.2729 37.6418C42.2729 36.1256 41.7009 35.0176 34.208 34.2595C27.9735 33.6181 24.084 32.2186 24.084 27.1451C24.084 22.4216 27.9735 19.6226 34.494 19.6226C41.8153 19.6226 45.4188 22.1884 45.8764 27.7866C45.8764 27.9616 45.8192 28.1365 45.7048 28.3115C45.5904 28.4281 45.4188 28.5447 45.2472 28.5447H42.2157C41.9297 28.5447 41.6437 28.3115 41.5866 28.0198C40.9002 24.8126 39.127 23.7629 34.4368 23.7629C29.1746 23.7629 28.5455 25.629 28.5455 27.0285C28.5455 28.7196 29.289 29.2445 36.3816 30.1775C43.4169 31.1106 46.7344 32.4518 46.7344 37.4669C46.7344 42.5986 42.5589 45.5143 35.352 45.5143Z" fill="#5FA04E"/>
</g>
<defs>
<clipPath id="clip0_26_174">
<rect width="56.32" height="64" fill="white"/>
</clipPath>
</defs>
</svg>
